<svg xmlns="http://www.w3.org/2000/svg" xmlns:xlink="http://www.w3.org/1999/xlink" viewBox="0 0 1920 482"><defs><style>.cls-1,.cls-24,.cls-6{fill:none;}.cls-2{isolation:isolate;}.cls-3{fill:url(#Degradado_sin_nombre_2);}.cls-4{opacity:0.4;}.cls-5{clip-path:url(#clip-path);}.cls-24,.cls-6{stroke:#fff;stroke-width:2px;}.cls-6{stroke-linecap:round;stroke-linejoin:round;}.cls-7{opacity:0.6;}.cls-11,.cls-13,.cls-15,.cls-17,.cls-8{mix-blend-mode:multiply;}.cls-9{fill:url(#Degradado_sin_nombre_27);}.cls-10,.cls-11{fill:url(#Degradado_sin_nombre_26);}.cls-12,.cls-13{fill:url(#Degradado_sin_nombre_26-5);}.cls-14,.cls-15{fill:url(#Degradado_sin_nombre_26-9);}.cls-16,.cls-17{fill:url(#Degradado_sin_nombre_26-13);}.cls-18{fill:url(#Degradado_sin_nombre_27-2);}.cls-19{fill:url(#Degradado_sin_nombre_27-3);}.cls-20{opacity:0.7;}.cls-21{fill:#fff;}.cls-22{opacity:0.5;mix-blend-mode:soft-light;}.cls-23{clip-path:url(#clip-path-2);}.cls-24{stroke-miterlimit:10;}</style><linearGradient id="Degradado_sin_nombre_2" x1="5.18" y1="241" x2="1925.18" y2="241" gradientTransform="matrix(1, 0, 0, -1, -5.18, 482)" gradientUnits="userSpaceOnUse"><stop offset="0.12" stop-color="#9597c5"/><stop offset="0.43" stop-color="#696bac"/><stop offset="0.73" stop-color="#6769ab"/><stop offset="1" stop-color="#3f4195"/></linearGradient><clipPath id="clip-path"><rect id="SVGID" class="cls-1" width="1920" height="482"/></clipPath><linearGradient id="Degradado_sin_nombre_27" x1="1725.57" y1="65.87" x2="1725.57" y2="566.09" gradientUnits="userSpaceOnUse"><stop offset="0" stop-color="#00d7f8" stop-opacity="0"/><stop offset="0.1" stop-color="#0fc9f8" stop-opacity="0.07"/><stop offset="0.3" stop-color="#35a4f8" stop-opacity="0.24"/><stop offset="0.57" stop-color="#7369f7" stop-opacity="0.52"/><stop offset="0.91" stop-color="#c719f7" stop-opacity="0.91"/><stop offset="1" stop-color="#dc05f7"/></linearGradient><linearGradient id="Degradado_sin_nombre_26" x1="1141.18" y1="823.67" x2="1440.89" y2="453.57" gradientTransform="matrix(0.81, -0.08, -0.26, 0.84, 248.12, 95.26)" gradientUnits="userSpaceOnUse"><stop offset="0" stop-color="#dc05f7"/><stop offset="0.09" stop-color="#c719f7" stop-opacity="0.91"/><stop offset="0.43" stop-color="#7369f7" stop-opacity="0.52"/><stop offset="0.7" stop-color="#35a4f8" stop-opacity="0.24"/><stop offset="0.9" stop-color="#0fc9f8" stop-opacity="0.07"/><stop offset="1" stop-color="#00d7f8" stop-opacity="0"/></linearGradient><linearGradient id="Degradado_sin_nombre_26-5" x1="111.56" y1="511.61" x2="411.26" y2="141.51" gradientTransform="matrix(-0.81, 0.08, 0.26, -0.84, 2046.49, 599.49)" xlink:href="#Degradado_sin_nombre_26"/><linearGradient id="Degradado_sin_nombre_26-9" x1="542.74" y1="950" x2="842.44" y2="579.9" gradientTransform="matrix(-0.81, 0.08, 0.26, -0.84, 2046.49, 599.49)" xlink:href="#Degradado_sin_nombre_26"/><linearGradient id="Degradado_sin_nombre_26-13" x1="1180.89" y1="1018.17" x2="1480.6" y2="648.07" gradientTransform="matrix(-0.81, 0.08, 0.26, -0.84, 2046.49, 599.49)" xlink:href="#Degradado_sin_nombre_26"/><linearGradient id="Degradado_sin_nombre_27-2" x1="159.02" y1="400.48" x2="159.02" y2="-187.48" xlink:href="#Degradado_sin_nombre_27"/><linearGradient id="Degradado_sin_nombre_27-3" x1="578.44" y1="659.45" x2="578.44" y2="294.79" gradientTransform="matrix(1, 0, 0, -1, 0, 828.82)" xlink:href="#Degradado_sin_nombre_27"/><clipPath id="clip-path-2"><ellipse class="cls-1" cx="721.55" cy="270.83" rx="173.3" ry="144.72"/></clipPath></defs><g class="cls-2"><g id="Layer_1" data-name="Layer 1"><rect class="cls-3" width="1920" height="482" transform="translate(1920 482) rotate(180)"/><g class="cls-4"><g class="cls-5"><line class="cls-6" x1="765.65" y1="59.1" x2="774.13" y2="66.17"/><line class="cls-6" x1="774.13" y1="59.1" x2="765.65" y2="66.17"/><line class="cls-6" x1="1659.52" y1="163.9" x2="1668" y2="170.97"/><line class="cls-6" x1="1668" y1="163.9" x2="1659.52" y2="170.97"/><line class="cls-6" x1="805.8" y1="388.67" x2="814.28" y2="395.75"/><line class="cls-6" x1="814.28" y1="388.67" x2="805.8" y2="395.75"/><line class="cls-6" x1="380.56" y1="286.34" x2="389.04" y2="293.41"/><line class="cls-6" x1="389.04" y1="286.34" x2="380.56" y2="293.41"/><g class="cls-7"><g class="cls-8"><path class="cls-9" d="M1725.57,436.94,1531.14,274.58l194.43-162.36L1920,274.58Zm-97.42-162.36,97.42,81.35L1823,274.58l-97.41-81.35Z"/></g><polygon class="cls-10" points="1023.38 651.02 959.77 597.09 1342.39 282.39 1406 336.32 1023.38 651.02"/><polygon class="cls-11" points="1023.38 651.02 959.77 597.09 1342.39 282.39 1406 336.32 1023.38 651.02"/><polygon class="cls-10" points="1023.38 651.02 959.77 597.09 1342.39 282.39 1406 336.32 1023.38 651.02"/><polygon class="cls-11" points="1023.38 651.02 959.77 597.09 1342.39 282.39 1406 336.32 1023.38 651.02"/><polygon class="cls-12" points="2021.78 220.23 2085.39 274.16 1702.76 588.86 1639.15 534.93 2021.78 220.23"/><polygon class="cls-13" points="2021.78 220.23 2085.39 274.16 1702.76 588.86 1639.15 534.93 2021.78 220.23"/><polygon class="cls-12" points="2021.78 220.23 2085.39 274.16 1702.76 588.86 1639.15 534.93 2021.78 220.23"/><polygon class="cls-13" points="2021.78 220.23 2085.39 274.16 1702.76 588.86 1639.15 534.93 2021.78 220.23"/><polygon class="cls-14" points="1787.32 -111.88 1850.93 -57.95 1468.3 256.75 1404.69 202.82 1787.32 -111.88"/><polygon class="cls-15" points="1787.32 -111.88 1850.93 -57.95 1468.3 256.75 1404.69 202.82 1787.32 -111.88"/><polygon class="cls-14" points="1787.32 -111.88 1850.93 -57.95 1468.3 256.75 1404.69 202.82 1787.32 -111.88"/><polygon class="cls-15" points="1787.32 -111.88 1850.93 -57.95 1468.3 256.75 1404.69 202.82 1787.32 -111.88"/><polygon class="cls-16" points="1289.63 -116.18 1353.24 -62.25 970.62 252.46 907.01 198.53 1289.63 -116.18"/><polygon class="cls-17" points="1289.63 -116.18 1353.24 -62.25 970.62 252.46 907.01 198.53 1289.63 -116.18"/><polygon class="cls-16" points="1289.63 -116.18 1353.24 -62.25 970.62 252.46 907.01 198.53 1289.63 -116.18"/><polygon class="cls-17" points="1289.63 -116.18 1353.24 -62.25 970.62 252.46 907.01 198.53 1289.63 -116.18"/><path class="cls-18" d="M159,362.13-309-28.69,159-419.52,627-28.69ZM-126.28-28.69,159,209.55,444.32-28.69,159-266.94Z"/><g class="cls-8"><path class="cls-19" d="M877.92,452.72,578.43,702.8,279,452.72,578.43,202.63ZM578.43,578l150.05-125.3L578.43,327.41l-150,125.31Z"/></g><g class="cls-20"><polygon class="cls-21" points="877.63 470.61 875.71 468.98 1171.64 225.5 1173.56 227.13 877.63 470.61"/><polygon class="cls-21" points="908.02 466.83 906.1 465.2 1202.04 221.73 1203.96 223.35 908.02 466.83"/><polygon class="cls-21" points="905.28 490.59 903.36 488.96 1199.3 245.48 1201.22 247.11 905.28 490.59"/></g><path class="cls-21" d="M63.57,52.63a2.7,2.7,0,1,1-2.66-2.23A2.47,2.47,0,0,1,63.57,52.63Z"/><path class="cls-21" d="M63.57,65.91a2.7,2.7,0,1,1-2.66-2.22A2.47,2.47,0,0,1,63.57,65.91Z"/><path class="cls-21" d="M63.57,79.2A2.7,2.7,0,1,1,60.91,77,2.47,2.47,0,0,1,63.57,79.2Z"/><path class="cls-21" d="M63.57,92.49a2.7,2.7,0,1,1-2.66-2.23A2.47,2.47,0,0,1,63.57,92.49Z"/><path class="cls-21" d="M63.57,105.78a2.7,2.7,0,1,1-2.66-2.23A2.47,2.47,0,0,1,63.57,105.78Z"/><path class="cls-21" d="M63.57,119.06a2.7,2.7,0,1,1-2.66-2.22A2.47,2.47,0,0,1,63.57,119.06Z"/><path class="cls-21" d="M63.57,132.35a2.7,2.7,0,1,1-2.66-2.23A2.47,2.47,0,0,1,63.57,132.35Z"/><path class="cls-21" d="M63.57,145.64a2.7,2.7,0,1,1-2.66-2.23A2.47,2.47,0,0,1,63.57,145.64Z"/><path class="cls-21" d="M63.57,158a2.7,2.7,0,1,1-2.66-2.23A2.47,2.47,0,0,1,63.57,158Z"/><path class="cls-21" d="M63.57,171.28a2.7,2.7,0,1,1-2.66-2.22A2.47,2.47,0,0,1,63.57,171.28Z"/><path class="cls-21" d="M63.57,184.57a2.7,2.7,0,1,1-2.66-2.22A2.47,2.47,0,0,1,63.57,184.57Z"/><path class="cls-21" d="M63.57,197.86a2.7,2.7,0,1,1-2.66-2.23A2.47,2.47,0,0,1,63.57,197.86Z"/><path class="cls-21" d="M63.57,211.14a2.7,2.7,0,1,1-2.66-2.22A2.47,2.47,0,0,1,63.57,211.14Z"/><path class="cls-21" d="M63.57,224.43a2.7,2.7,0,1,1-2.66-2.22A2.47,2.47,0,0,1,63.57,224.43Z"/><path class="cls-21" d="M63.57,237.72a2.7,2.7,0,1,1-2.66-2.23A2.47,2.47,0,0,1,63.57,237.72Z"/><path class="cls-21" d="M63.57,251a2.7,2.7,0,1,1-2.66-2.23A2.47,2.47,0,0,1,63.57,251Z"/><path class="cls-21" d="M101,52.63a2.71,2.71,0,1,1-2.67-2.23A2.48,2.48,0,0,1,101,52.63Z"/><path class="cls-21" d="M101,65.91a2.71,2.71,0,1,1-2.67-2.22A2.48,2.48,0,0,1,101,65.91Z"/><path class="cls-21" d="M101,79.2A2.71,2.71,0,1,1,98.36,77,2.48,2.48,0,0,1,101,79.2Z"/><path class="cls-21" d="M101,92.49a2.71,2.71,0,1,1-2.67-2.23A2.48,2.48,0,0,1,101,92.49Z"/><path class="cls-21" d="M101,105.78a2.71,2.71,0,1,1-2.67-2.23A2.48,2.48,0,0,1,101,105.78Z"/><path class="cls-21" d="M101,119.06a2.71,2.71,0,1,1-2.67-2.22A2.48,2.48,0,0,1,101,119.06Z"/><path class="cls-21" d="M101,132.35a2.71,2.71,0,1,1-2.67-2.23A2.48,2.48,0,0,1,101,132.35Z"/><path class="cls-21" d="M101,145.64a2.71,2.71,0,1,1-2.67-2.23A2.48,2.48,0,0,1,101,145.64Z"/><path class="cls-21" d="M101,158a2.71,2.71,0,1,1-2.67-2.23A2.48,2.48,0,0,1,101,158Z"/><path class="cls-21" d="M101,171.28a2.71,2.71,0,1,1-2.67-2.22A2.48,2.48,0,0,1,101,171.28Z"/><path class="cls-21" d="M101,184.57a2.71,2.71,0,1,1-2.67-2.22A2.48,2.48,0,0,1,101,184.57Z"/><path class="cls-21" d="M101,197.86a2.71,2.71,0,1,1-2.67-2.23A2.48,2.48,0,0,1,101,197.86Z"/><path class="cls-21" d="M101,211.14a2.71,2.71,0,1,1-2.67-2.22A2.48,2.48,0,0,1,101,211.14Z"/><path class="cls-21" d="M101,224.43a2.71,2.71,0,1,1-2.67-2.22A2.48,2.48,0,0,1,101,224.43Z"/><path class="cls-21" d="M101,237.72a2.71,2.71,0,1,1-2.67-2.23A2.48,2.48,0,0,1,101,237.72Z"/><path class="cls-21" d="M101,251a2.71,2.71,0,1,1-2.67-2.23A2.48,2.48,0,0,1,101,251Z"/><path class="cls-21" d="M81.3,74.68a2.71,2.71,0,1,1-2.67-2.23A2.48,2.48,0,0,1,81.3,74.68Z"/><path class="cls-21" d="M81.3,88a2.71,2.71,0,1,1-2.67-2.22A2.48,2.48,0,0,1,81.3,88Z"/><path class="cls-21" d="M81.3,101.25A2.71,2.71,0,1,1,78.63,99,2.48,2.48,0,0,1,81.3,101.25Z"/><path class="cls-21" d="M81.3,114.54a2.71,2.71,0,1,1-2.67-2.23A2.48,2.48,0,0,1,81.3,114.54Z"/><path class="cls-21" d="M81.3,127.82a2.71,2.71,0,1,1-2.67-2.22A2.48,2.48,0,0,1,81.3,127.82Z"/><path class="cls-21" d="M81.3,141.11a2.71,2.71,0,1,1-2.67-2.22A2.48,2.48,0,0,1,81.3,141.11Z"/><path class="cls-21" d="M81.3,154.4a2.71,2.71,0,1,1-2.67-2.23A2.48,2.48,0,0,1,81.3,154.4Z"/><path class="cls-21" d="M81.3,167.69a2.71,2.71,0,1,1-2.67-2.23A2.48,2.48,0,0,1,81.3,167.69Z"/><path class="cls-21" d="M81.3,180.05a2.71,2.71,0,1,1-2.67-2.23A2.48,2.48,0,0,1,81.3,180.05Z"/><path class="cls-21" d="M81.3,193.33a2.71,2.71,0,1,1-2.67-2.22A2.48,2.48,0,0,1,81.3,193.33Z"/><path class="cls-21" d="M81.3,206.62a2.71,2.71,0,1,1-2.67-2.22A2.48,2.48,0,0,1,81.3,206.62Z"/><path class="cls-21" d="M81.3,219.91a2.71,2.71,0,1,1-2.67-2.23A2.48,2.48,0,0,1,81.3,219.91Z"/><path class="cls-21" d="M81.3,233.19A2.71,2.71,0,1,1,78.63,231,2.48,2.48,0,0,1,81.3,233.19Z"/><path class="cls-21" d="M81.3,246.48a2.71,2.71,0,1,1-2.67-2.22A2.48,2.48,0,0,1,81.3,246.48Z"/><path class="cls-21" d="M81.3,259.77a2.71,2.71,0,1,1-2.67-2.23A2.48,2.48,0,0,1,81.3,259.77Z"/><path class="cls-21" d="M81.3,273.06a2.71,2.71,0,1,1-2.67-2.23A2.48,2.48,0,0,1,81.3,273.06Z"/><g class="cls-22"><g class="cls-23"><line class="cls-24" x1="425.68" y1="284.33" x2="714.45" y2="46.75"/><line class="cls-24" x1="455.34" y1="280.65" x2="744.11" y2="43.07"/><line class="cls-24" x1="452.67" y1="303.83" x2="741.44" y2="66.25"/><line class="cls-24" x1="462.54" y1="318.35" x2="751.31" y2="80.77"/><line class="cls-24" x1="492.2" y1="314.67" x2="780.97" y2="77.09"/><line class="cls-24" x1="489.52" y1="337.85" x2="778.29" y2="100.27"/><line class="cls-24" x1="499.39" y1="352.38" x2="788.16" y2="114.8"/><line class="cls-24" x1="529.05" y1="348.7" x2="817.82" y2="111.12"/><line class="cls-24" x1="526.38" y1="371.88" x2="815.15" y2="134.3"/><line class="cls-24" x1="536.25" y1="386.4" x2="825.02" y2="148.82"/><line class="cls-24" x1="565.91" y1="382.72" x2="854.68" y2="145.14"/><line class="cls-24" x1="563.24" y1="405.9" x2="852.01" y2="168.32"/><line class="cls-24" x1="573.11" y1="420.43" x2="861.88" y2="182.85"/><line class="cls-24" x1="602.77" y1="416.75" x2="891.54" y2="179.17"/><line class="cls-24" x1="600.09" y1="439.93" x2="888.86" y2="202.35"/><line class="cls-24" x1="609.96" y1="454.45" x2="898.73" y2="216.87"/><line class="cls-24" x1="639.63" y1="450.77" x2="928.4" y2="213.19"/><line class="cls-24" x1="636.95" y1="473.95" x2="925.72" y2="236.37"/><line class="cls-24" x1="646.82" y1="488.48" x2="935.59" y2="250.9"/><line class="cls-24" x1="676.48" y1="484.8" x2="965.25" y2="247.21"/><line class="cls-24" x1="673.81" y1="507.98" x2="962.58" y2="270.4"/><line class="cls-24" x1="683.68" y1="522.5" x2="972.45" y2="284.92"/><line class="cls-24" x1="713.34" y1="518.82" x2="1002.11" y2="281.24"/><line class="cls-24" x1="710.67" y1="542" x2="999.44" y2="304.42"/></g></g><g class="cls-20"><polygon class="cls-21" points="810.06 152.73 808.27 151.21 1083.1 -74.9 1084.89 -73.38 810.06 152.73"/><polygon class="cls-21" points="838.29 149.22 836.5 147.71 1111.33 -78.4 1113.11 -76.89 838.29 149.22"/><polygon class="cls-21" points="835.74 171.28 833.96 169.77 1108.78 -56.34 1110.57 -54.82 835.74 171.28"/></g></g></g></g></g></g></svg>