<svg id="Layer_1" data-name="Layer 1" xmlns="http://www.w3.org/2000/svg" viewBox="0 0 1920 1080"><defs><style>.cls-1{fill:#fff;}</style></defs><path class="cls-1" d="M1292.89,590.23c-1.65,1.56-3.25,3.17-4.93,4.68-12.38,11.09-24.4,22.64-37.3,33.08a59.13,59.13,0,0,1-31.52,12.74c-15.37,1.57-27.12-4.86-36.48-16.53-2.17-2.7-4.23-5.49-6.71-8.73-4.15,3.35-8.13,6.29-11.8,9.56-21.66,19.35-47.4,26.49-75.75,24.37-10.5-.78-20.75-4.55-31.25-6A138.42,138.42,0,0,0,1030,642c-12.57.75-19.13,9.43-23.14,20.54-.57,1.59-2.11,2.82-3.21,4.22-1-1.57-2.56-3.07-2.74-4.72-1-9.75-2.1-19.53-2.3-29.31-.08-3.35,1.84-7,3.66-10.09q58.2-97.61,116.59-195.08c14.43-24.16,28.64-48.44,42.9-72.7,1.39-2.37,2.39-5,4-8.32-7-1-13.14-2-19.31-2.79-14.66-1.84-28.9-4.69-40.78-14.44-4.36-3.58-9.06-6.76-13.61-10.12l1.28-2.19c-.88,2.55-1.88,5.07-2.61,7.67a151.33,151.33,0,0,1-18.45,41.29c-9.93,15.53-24.18,24.49-42.12,27.59-4.74.83-6.39,2.86-6.55,7.54-.84,23.93-1.22,47.92-3.21,71.77-1.27,15.32-5.18,30.41-7.67,45.65-4.3,26.39-11.34,51.92-23.1,76-10.36,21.23-23.57,40-45.55,50.64-15.25,7.41-31.52,12.51-48.45,12.25-37-.57-66.47-16-87.8-46.92-13.18-19.1-20.91-40.29-27.45-62.22-6.7-22.48-7.26-45.55-7.25-68.68,0-50.42,9.61-99.15,27.21-146.27a349.35,349.35,0,0,1,64-107.61c10.52-12.13,21-24.14,34-33.62,8.91-6.48,18.16-6,24.73,1.13,4.79,5.22,5.14,9.54.59,15.08-7.18,8.76-14.81,17.15-21.92,26C869.94,273.69,845.25,317,831.45,366c-6.41,22.79-10.4,46-10.84,69.75-.21,11.31-1.29,22.65-.8,33.93.69,15.75,2.79,31.44,3.73,47.2,1.3,21.64,6.55,42.33,14.49,62.35,6.42,16.22,17.08,28.29,34.61,33.39,15.55,4.52,29.43-.24,42.54-7.48,28.52-15.74,47.05-40.33,56.59-70.86a523.63,523.63,0,0,0,16-68.84c3.11-18.42,3.12-37.37,4.55-56.08a107.05,107.05,0,0,1,1.14-10.9c.88-5-.94-8.59-4.62-11.85-22.14-19.64-36-44.32-42.85-72.87-9.78-41.07-7.9-81.55,9.43-120.46,5-11.12,12.21-21.21,18.42-31.77l2.68-1.15c2,2.82,3.91,5.74,6,8.46,17.25,22,27.34,47.15,32,74.42a429.18,429.18,0,0,1,6.23,88.42c-.38,10,.18,20-.16,30-.17,4.94,1.92,6.1,6.23,5.69,7.48-.72,14.14-3.7,18.8-9.3,5.81-7,12-14.19,15.51-22.39,9.9-23.22,18.5-47,27.6-70.54.94-2.43,1.87-4.86,3.16-8.23,1.88,2.55,3.25,4.33,4.53,6.17a158,158,0,0,0,28.21,30.91c16.25,13.74,34.63,17.29,55.08,13.08,17.37-3.58,33.42-10,47.43-21.07,1-.8,2.17-1.42,3.53-2.29.62,1.29,1.51,2.29,1.54,3.32.38,13,2.34,26-5,38.36q-51.79,87.75-102.94,175.89c-14.4,24.74-28.38,49.74-42.63,74.58-3,5.19-6.37,10.15-9.54,15.23-3.75,6-3.57,7.62,2,12.16,9.6,7.8,21.3,10.2,32.93,13.31,23.16,6.18,40.76-4.12,57.58-17.62,4.92-4,5.19-9.82,5.46-15.5.36-7.47.75-15,.74-22.44,0-25.77,7-50.26,13.41-74.85,13.63-52,36.43-99.57,70-141.7,14.86-18.65,30.72-36.46,50-50.78,9.86-7.31,20.45-13,32.61-15.59a28.82,28.82,0,0,1,33.5,18.59c2,5.61,3.74,11.29,5.84,17.7,6.43-2.6,12.34-5.13,18.36-7.34,2-.75,4.37-.7,6.57-1,.17,2.21.88,4.53.42,6.59q-11.84,53.75-24,107.43c-1,4.32-2.61,8.49-3.16,13.57,1.37-1.1,3-2,4.07-3.34,6.74-8.68,14.46-16.86,19.7-26.39,5-9.15,8-19.59,10.88-29.74,7.12-24.73,13.71-49.61,20.47-74.44.74-2.71,1.23-5.48,2-8.87,2.34.76,4.54,1.26,6.57,2.16,9.42,4.2,18.76,8.57,28.19,12.74,3.59,1.59,3.7,4.14,2.86,7.39-4.09,15.92-8.65,31.75-12,47.83-5.83,27.95-11.5,56-16.08,84.13-3.31,20.3-5.2,40.88-6.8,61.4-.56,7.29,1.14,14.89,2.69,22.16,1.38,6.46,6.27,9.09,12.87,8.07A57.1,57.1,0,0,0,1480,522c16.68-15.1,27.33-34.08,35.85-54.64,15.1-36.42,29.86-72.94,38.76-111.48,3.1-13.41,5.17-27.05,7.75-40.58.51-2.7,1.21-5.36,1.83-8.07,12.77,5.67,24.94,10.94,37,16.5,3.84,1.77,4.32,5.09,2.65,8.89-12.58,28.57-20.27,58.75-28.46,88.7-7.62,27.86-13.54,56.2-16.37,85a145.57,145.57,0,0,0,0,23,23.1,23.1,0,0,0,3.29,9.8c2.82,4.84,7.43,5.4,11.13,1.29,5.1-5.66,10.66-11.25,14.31-17.82,27.75-49.94,49.33-102.47,62.88-158,4-16.22,5.42-33,7.77-49.64.71-5.08,2.07-8,8-9.39,5.74-1.32,10.82-5.43,16.26-8.2a37.21,37.21,0,0,1,5-1.72c.45,1.67,1.27,3.32,1.3,5,.11,6.66,0,13.33-.07,20-.22,33.66-3.78,67-9.36,100.15-.53,3.13-.07,6.42-.07,9.63l1.37.61c1.83-2.58,3.8-5.06,5.46-7.74,16.82-27,33.45-54.07,50.46-80.94A289.52,289.52,0,0,1,1755,316.73a70.1,70.1,0,0,1,12.68-11.88c5-3.81,10.41-2,12,4.22a48.22,48.22,0,0,1,1.11,13.8c-.9,23.61-2.39,47.2-3,70.82q-1.12,43-1.11,85.94c0,23.78.31,47.57,1.21,71.33.44,11.59,2.37,23.13,3.91,34.65,2.5,18.76,4.81,37.57,8,56.21,2.36,13.7,6,27.19,9.16,40.74,1.45,6.22,1.08,7.08-5.44,8.21-9.81,1.7-19.65,3.23-29.49,4.8-3,.48-4.78-.65-5.06-3.89q-1.27-14.65-2.66-29.29c-1.49-15.55-3.08-31.09-4.52-46.65-.62-6.79-.95-13.6-1.45-20.4q-1.65-22.12-3.33-44.26c-.91-12.27-2.13-24.52-2.62-36.81-1-24.12-1.29-48.26-2.37-72.37-.24-5.33-2.19-10.69-3.94-15.83-1.6-4.67-4.64-5.29-7.66-1.26-6.36,8.5-13,16.94-18,26.26-13.38,25.29-25.82,51.08-38.82,76.57-10.74,21-21.51,42.08-32.79,62.84-3.52,6.48-8.52,12.21-13.28,17.92-1.71,2-4.57,3.33-7.15,4.4-6.38,2.65-12.24-.74-13.19-7.58-2.25-16.16-.92-32.17,2.47-48.06a253,253,0,0,0,4.64-27c-3.62,5.66-7.13,11.39-10.89,16.95-10.91,16.14-21.09,33-35.82,46a192.32,192.32,0,0,1-26.38,19.55c-11.24,7-21.06,3.7-25.85-8.53-3.3-8.39-5-17.44-7.16-26.24-3.46-13.81-3.83-27.94-4.09-42.08,0-.91-.55-1.82-1.16-3.73-2.28,2.27-4.19,4-5.86,5.87-18,20.51-35.91,41.19-54.15,61.52a249.35,249.35,0,0,1-20.11,19.43c-8,7.09-15.59,6.44-22.61-1.56a19.53,19.53,0,0,1-4.21-6.7c-3.64-11.88-7.77-23.64-7.81-36.37-.07-18.15-1.46-36.33-.68-54.43.88-20.22,3.56-40.36,5.44-60.54a22.45,22.45,0,0,0-.43-8.27c-1,1.18-2,2.29-2.9,3.53-8.33,11.66-16.45,23.46-25,35-11.16,15.11-16.69,32.84-23.55,49.94-.82,2.05-.53,4.6-.53,6.91q0,107.25,0,214.5c0,6.06.35,6.39,6.58,6.41,7.1,0,8.16,1,7.62,8.16-.86,11.45-1.4,23.18-7.14,33.37-3.51,6.22-8.7,11.59-13.61,16.89-3,3.27-6.7,2.9-10.07-.43-8.18-8.08-16.67-15.84-24.63-24.11a13.41,13.41,0,0,1-3.21-8.36c-.23-14.33.29-28.66.06-43-.44-27-1.5-53.92-1.76-80.88-.22-23,.37-46,.51-69,0-3.11-.47-6.22-.72-9.33Zm-81.22-40.67c0,3.16.13,6.34,0,9.49-.44,8.69,1.82,16.76,5.18,24.66,2.45,5.74,6.87,8.29,12.85,8.61,7,.37,13.07-2.11,18.36-6.53,16.34-13.64,30.63-29.14,42-47.16,22.32-35.24,38.46-73.14,49.3-113.43,5.73-21.3,10.38-42.66,8.86-64.85a91,91,0,0,0-3.08-19.11c-3.18-10.89-14.08-15.92-24.2-10.79-7.16,3.63-14.4,8.06-19.91,13.77a304.81,304.81,0,0,0-26.85,32.18c-20.93,28.78-35.08,61.06-46.46,94.57C1219.09,496.45,1210.12,522,1211.67,549.56ZM994.84,354.06l1.51-.33c.4-4,.57-8,1.24-12a210.31,210.31,0,0,0,.57-67c-2.13-14-5.12-27.9-13.65-39.68-1.74-2.4-5.27-5.14-7.74-4.93s-4.86,3.73-6.69,6.24a13,13,0,0,0-2.27,6.52C967,255.59,965.59,268.35,966,281c.87,24.91,9.84,47.28,24,67.62A62.23,62.23,0,0,0,994.84,354.06Z"/><path class="cls-1" d="M361.59,791.75q-111.73,0-223.47.09a21.36,21.36,0,0,1-15.31-5.71c-29.64-26.34-59.45-52.47-89.22-78.67a26.92,26.92,0,0,0-4.19-3.54c-9.35-5.33-11.62-13.27-11.6-23.82q.48-214.72.22-429.44c0-1.83.11-3.67,0-5.5-.3-4.26,1.49-5.94,5.86-5.87,12.49.2,25-.08,37.49.18,4.68.09,6.06-1.68,6-6.14-.12-27.83,0-55.66-.16-83.49,0-4.87,1-6.63,6.29-6.61q115,.27,230,.1a15.82,15.82,0,0,1,12.61,5.81c24.59,27.85,49.36,55.54,73.79,83.52,4.59,5.26,9.59,7.5,16.46,7.44,24.16-.21,48.33,0,72.49-.15a24.31,24.31,0,0,1,16.48,5.66q46.88,38.19,94.07,76c4.25,3.42,5.31,7.6,5.31,12.72q-.09,218,0,435.94a119.68,119.68,0,0,0,.41,12c.88,8.59.18,9.5-8.53,9.5Zm-334.17-543c.51,4.62,1.15,7.58,1.1,10.53-.11,7-.82,14-.82,20.94q-.11,198.22-.08,396.44c0,11.7,0,11.7,11.89,11.7H475.94c10.31,0,10.31,0,10.31-10.56V258.38c0-1.5,0-3,0-4.5,0-3.71-1.72-5.22-5.6-5.19-24,.2-48,.21-72,.29-8.52,0-9,.56-9,9q0,175.47.07,350.94a72.7,72.7,0,0,0,.67,11.44c.51,3.11-.63,4.45-3.4,4.81a44,44,0,0,1-6,.39q-113.72-.29-227.42-.56a15.18,15.18,0,0,1-11.2-4.22q-38.92-36.3-78.2-72.22c-4.64-4.24-7-8.65-7-15.1q.24-137,.11-274c0-1.5,0-3,0-4.5.16-4.17-1.94-6.23-6-6.25C50.24,248.74,39.12,248.77,27.42,248.77Zm174.24,96v181c0,7.34.61,8.17,7.85,8.19q43.5.12,87,0c8.11,0,8.75-.89,8.75-9V165.52c0-7.9-.85-8.76-9-8.76q-43.74,0-87.49,0c-7.11,0-7.12,0-7.12,7.07Zm-13.32.65q0-90.22,0-180.45c0-7.47-.76-8.24-8.34-8.24q-43,0-86,0c-8.44,0-9.36.95-9.36,9.52v332.9c0,9.33.15,18.66.06,28,0,4.32,1.4,6.29,6.1,6.3,29.64.06,59.28.37,88.92.54,7.69,0,8.6-1,8.6-8.6Z"/><path class="cls-1" d="M1771.87,798c1.2-2.1,2.3-4.27,3.62-6.29,6.38-9.72,5.79-18.94-3.42-26-6.72-5.18-14.43-9.86-22.45-12.41-20.08-6.36-40.41-12.18-61-16.69-18.43-4-37.25-6.43-56-8.85-28.14-3.63-56.32-7-84.56-9.8-18-1.78-36.15-2.6-54.25-3.23-20.79-.73-41.61-.67-62.41-1.17-17-.4-33.91-1.18-50.87-1.67a142.53,142.53,0,0,0-15.47.26c-4,.32-5.64-1.43-5.69-5-.1-7.16-.2-14.34.13-21.48,0-1.25,2.14-2.48,3.44-3.54.4-.33,1.29-.1,2-.1,34.65.11,69.3-.11,103.94.47,24.77.41,49.55,1.52,74.28,3s49.68,4,74.55,5.62c35.7,2.33,71,7.69,106.06,14.29,21,4,42.12,8.15,61.89,16.78a130.66,130.66,0,0,1,20,11.12c9.41,6.27,11.08,11.67,8.62,22.74-3.29,14.78-12,25.72-24,34.4a120.44,120.44,0,0,1-11.2,7.47c-1.85,1.05-4.25,1.12-6.41,1.63Z"/><path class="cls-1" d="M837.1,745.29c.48-5.91.59-11.7,1.66-17.31.27-1.43,3.46-3,5.51-3.3,9.82-1.65,19.68-3.12,29.57-4.3,31.34-3.73,62.67-7.46,94-10.9q36.17-4,72.42-7.19c25.49-2.25,51-4.09,76.55-6.06,26.84-2.07,53.7-4,80.54-6.12,22.53-1.79,45-3.84,67.57-5.64,6.54-.52,9.56.06,8.86,8-.41,4.64,0,9.34-.26,14-.33,6.13-1.53,7.06-7.59,7.25-23.29.73-46.58,1.37-69.86,2.32-26.92,1.11-53.86,2.19-80.75,3.86-31,1.91-62,4.35-93,6.76-24.36,1.89-48.74,3.68-73,6.25-32.86,3.49-65.65,7.71-98.48,11.54C846.58,744.91,842.28,745,837.1,745.29Z"/><path class="cls-1" d="M992,123.65c1.17-21.78,9.36-38.56,25.63-51.49,9.55-7.59,27.92-4.87,32.41,11.54,5.92,21.6-9.23,54.15-27.11,63.38-13.22,6.82-25.27,2-29.13-12.35A97.53,97.53,0,0,1,992,123.65Z"/><path class="cls-1" d="M892.6,153c-10.4-1.15-17.61-7.52-19-19-3.12-25.12,5-45.8,26-60.68,4.9-3.46,10.56-6.65,16.66-3.77a27,27,0,0,1,9.66,8.11c7,9.45,6.29,20.1,3.94,31-3.42,15.92-10.62,29.37-24.35,38.57C901.61,149.77,896.91,151.08,892.6,153Z"/><path class="cls-1" d="M1544.65,222c1.59,17.27-5,31.58-16.66,43.69-10,10.45-23.44,7-28-6.68a46.38,46.38,0,0,1,.19-31.23c3.57-9.81,6.45-20,14.16-27.7,5.22-5.18,11-9.68,19-6.58s10.29,10.36,11.24,18C1545,215,1544.65,218.53,1544.65,222Z"/><path class="cls-1" d="M1623.89,213.74c-1,21.12-7,38.24-22.08,51.35-7.31,6.37-16.79,4.47-20.22-4.61-5.76-15.24-4.38-30.69,2-45.21,3.51-8.05,9-15.56,14.85-22.19,8.28-9.38,20.32-5.71,23.27,6.61C1622.9,204.83,1623.34,210.15,1623.89,213.74Z"/><path class="cls-1" d="M45.1,854.24H72.92l16.33,27.45,16.37-27.45H133.3l-31.52,47.29v34.08H76.67V901.53Z"/><path class="cls-1" d="M180.54,922.18H152.1l-3.95,13.43H122.57L153,854.24h27.32l30.47,81.37H184.6Zm-5.2-17.6-9-29.25-8.85,29.25Z"/><path class="cls-1" d="M218.68,854.24h41.64q13.6,0,20.38,6.49t6.77,18.49q0,12.31-7.38,19.26t-22.53,6.94H243.84v30.19H218.68Zm25.16,34.69H250q7.25,0,10.18-2.52a8.18,8.18,0,0,0,2.93-6.47,9.07,9.07,0,0,0-2.55-6.5q-2.54-2.66-9.56-2.66h-7.14Z"/><path class="cls-1" d="M301.57,854.24h25.11v81.37H301.57Z"/><path class="cls-1" d="M378.05,908.69l23.84-1.5q.76,5.84,3.15,8.88Q408.91,921,416.1,921c3.58,0,6.33-.84,8.27-2.52a7.59,7.59,0,0,0,2.9-5.86,7.49,7.49,0,0,0-2.76-5.66q-2.77-2.49-12.83-4.72-16.49-3.72-23.51-9.88a19.89,19.89,0,0,1-7.07-15.71,21.35,21.35,0,0,1,3.62-11.85A24,24,0,0,1,395.61,856q7.27-3.18,19.94-3.19,15.54,0,23.69,5.8T449,877.11l-23.62,1.39c-.62-3.67-1.94-6.33-3.95-8s-4.78-2.5-8.32-2.5c-2.91,0-5.11.62-6.58,1.86a5.7,5.7,0,0,0-2.21,4.53,4.51,4.51,0,0,0,1.82,3.49q1.77,1.62,8.41,3,16.42,3.55,23.53,7.19t10.34,9a23,23,0,0,1,3.23,12,25.91,25.91,0,0,1-4.31,14.43,27.11,27.11,0,0,1-12.06,10q-7.74,3.4-19.52,3.41-20.68,0-28.64-8T378.05,908.69Z"/><path class="cls-1" d="M514.05,922.18H485.61l-3.95,13.43H456.08l30.47-81.37h27.33l30.46,81.37H518.11Zm-5.2-17.6-8.94-29.25-8.86,29.25Z"/><path class="cls-1" d="M552.47,854.24h23.39l30.53,45v-45H630v81.37H606.39L576,890.93v44.68H552.47Z"/><path class="cls-1" d="M695.38,922.18H666.94l-4,13.43H637.41l30.47-81.37H695.2l30.47,81.37H699.43Zm-5.2-17.6-8.95-29.25-8.85,29.25Z"/><path class="cls-1" d="M715.82,854.24h27.83L760,881.69l16.37-27.45H804l-31.52,47.29v34.08H747.4V901.53Z"/><path class="cls-1" d="M813.1,854.24h25.1v81.37H813.1Zm4-21.59H834.5V849.3H817.13Z"/><path class="cls-1" d="M885.81,876.66h23.42L920.63,914l11.82-37.36h22.71l-25,59h-20Z"/><path class="cls-1" d="M1023.9,911.75H978.77q.62,5.43,2.94,8.1a10.65,10.65,0,0,0,8.51,3.83,12.81,12.81,0,0,0,6.31-1.67,14.82,14.82,0,0,0,3.92-3.72l22.18,2.06q-5.1,8.88-12.28,12.74T989.72,937q-11.67,0-18.36-3.31a27,27,0,0,1-11.08-10.49,31.65,31.65,0,0,1-4.4-16.9q0-13.82,8.82-22.37t24.36-8.55q12.6,0,19.91,3.83a25.83,25.83,0,0,1,11.11,11.1q3.82,7.28,3.82,18.93ZM1001,900.92q-.66-6.55-3.51-9.38A11,11,0,0,0,981.43,893c-1.37,1.78-2.23,4.43-2.6,7.94Z"/><path class="cls-1" d="M1067.81,854.24H1144v20.09h-25.54v61.28h-25.06V874.33h-25.54Z"/><path class="cls-1" d="M1156.29,854.24h25.1v81.37h-25.1Zm4-21.59h17.37V849.3h-17.37Z"/><path class="cls-1" d="M1253.34,902.31l22,6.66a40.85,40.85,0,0,1-7,15.49,30.28,30.28,0,0,1-11.8,9.38q-7.05,3.17-18,3.16-13.21,0-21.59-3.85t-14.46-13.57q-6.09-9.71-6.09-24.85,0-20.19,10.7-31t30.28-10.85q15.31,0,24.08,6.22t13,19.09l-22.12,4.94a19.17,19.17,0,0,0-2.44-5.44,14.47,14.47,0,0,0-5.14-4.44,15.79,15.79,0,0,0-19.85,5.32q-3.43,5.1-3.43,16,0,13.51,4.09,18.54t11.5,5q7.18,0,10.87-4T1253.34,902.31Z"/><path class="cls-1" d="M1337.3,922.18h-28.44l-3.95,13.43h-25.58l30.47-81.37h27.32l30.46,81.37h-26.23Zm-5.2-17.6-8.95-29.25-8.85,29.25Z"/><path class="cls-1" d="M1375.88,935.61V854.24h41.75q11.61,0,17.75,2a18.91,18.91,0,0,1,9.9,7.41,23,23,0,0,1-7,32.83,30,30,0,0,1-8.8,3.22A17,17,0,0,1,1440,907a32,32,0,0,1,3.51,5l12.13,23.58h-28.3l-13.39-24.86q-2.55-4.83-4.54-6.28a10.54,10.54,0,0,0-6.14-1.88H1401v33Zm25.16-48.4h10.56a37.53,37.53,0,0,0,6.64-1.11,6.58,6.58,0,0,0,4.06-2.55,7.57,7.57,0,0,0,1.58-4.72,7.48,7.48,0,0,0-2.49-6.05q-2.49-2.12-9.34-2.11h-11Z"/><path class="cls-1" d="M1463.58,854.24h67.14v17.37h-42v12.94h39v16.59h-39v16h43.25v18.43h-68.36Z"/><path class="cls-1" d="M1539.73,854.24h76.15v20.09h-25.55v61.28h-25V874.33h-25.55Z"/><path class="cls-1" d="M1714.83,922.18h-28.44l-4,13.43h-25.58l30.47-81.37h27.32l30.47,81.37h-26.24Zm-5.2-17.6-9-29.25-8.85,29.25Z"/><path class="cls-1" d="M1751.64,913h24.06v22.64h-24.06Z"/><path class="cls-1" d="M1786.42,908.69l23.84-1.5c.51,3.89,1.57,6.85,3.15,8.88q3.87,4.95,11.06,4.94c3.58,0,6.33-.84,8.27-2.52a7.59,7.59,0,0,0,2.9-5.86,7.49,7.49,0,0,0-2.76-5.66q-2.78-2.49-12.83-4.72-16.48-3.72-23.51-9.88a19.89,19.89,0,0,1-7.07-15.71,21.35,21.35,0,0,1,3.62-11.85A24,24,0,0,1,1804,856q7.27-3.18,19.94-3.19,15.54,0,23.69,5.8t9.71,18.46l-23.61,1.39c-.63-3.67-2-6.33-4-8s-4.78-2.5-8.32-2.5c-2.91,0-5.11.62-6.58,1.86a5.7,5.7,0,0,0-2.21,4.53,4.51,4.51,0,0,0,1.82,3.49q1.77,1.62,8.41,3,16.43,3.55,23.53,7.19t10.34,9a23,23,0,0,1,3.23,12,25.83,25.83,0,0,1-4.31,14.43,27.11,27.11,0,0,1-12.06,10q-7.74,3.4-19.52,3.41-20.68,0-28.64-8T1786.42,908.69Zm24.5,36.14,1.66-6.55a41,41,0,0,1,9.73-1.28q9.46,0,13,3.22a9.9,9.9,0,0,1,3.6,7.61,11,11,0,0,1-1.63,5.49,11.4,11.4,0,0,1-5.84,4.55,29.93,29.93,0,0,1-11.17,1.72,90.56,90.56,0,0,1-14.82-1.44v-6.83a64.49,64.49,0,0,0,12.22,1.11q4.76,0,6.45-1.27a4,4,0,0,0,1.68-3.33,3.53,3.53,0,0,0-1.38-2.78,6.59,6.59,0,0,0-4.31-1.17A53.76,53.76,0,0,0,1810.92,944.83Z"/><path class="cls-1" d="M1871.14,913h24.06v22.64h-24.06Z"/></svg>