<?xml version="1.0" standalone="no"?>
<!DOCTYPE svg PUBLIC "-//W3C//DTD SVG 20010904//EN"
 "http://www.w3.org/TR/2001/REC-SVG-20010904/DTD/svg10.dtd">
<svg version="1.0" xmlns="http://www.w3.org/2000/svg"
 width="512.000000pt" height="512.000000pt" viewBox="0 0 512.000000 512.000000"
 preserveAspectRatio="xMidYMid meet">

<g transform="translate(0.000000,512.000000) scale(0.100000,-0.100000)"
fill="#000000" stroke="none">
<path d="M2167 4090 c-500 -37 -925 -71 -945 -75 -56 -10 -107 -48 -131 -98
l-21 -44 2 -1054 3 -1054 33 -61 c18 -33 142 -202 275 -374 269 -350 279 -359
390 -367 82 -6 2181 123 2229 137 45 13 93 51 116 94 16 29 17 117 20 1187 l2
1155 -22 34 c-28 41 -684 508 -778 553 -58 28 -76 32 -165 34 -55 1 -509 -29
-1008 -67z m1124 -137 c42 -19 349 -233 394 -274 12 -12 16 -22 10 -28 -6 -5
-449 -35 -986 -67 -944 -56 -977 -58 -1020 -41 -51 20 -349 253 -349 273 0 7
10 18 22 25 27 14 1670 138 1793 135 65 -2 103 -8 136 -23z m613 -556 l21 -28
0 -988 c0 -934 -1 -988 -18 -1014 -10 -16 -30 -33 -45 -38 -42 -17 -2033 -130
-2074 -118 -19 5 -45 21 -59 35 l-24 26 -3 974 c-3 1055 -4 1030 50 1055 26
11 1924 128 2052 125 74 -1 80 -3 100 -29z"/>
<path d="M3357 3075 c-216 -13 -236 -19 -265 -79 -19 -38 -10 -53 37 -60 23
-3 59 -9 81 -12 l40 -6 0 -426 c0 -254 -4 -422 -9 -417 -5 6 -147 222 -316
480 -169 259 -309 472 -311 474 -2 2 -112 -4 -244 -13 -266 -18 -292 -25 -316
-81 -23 -57 -19 -72 24 -79 20 -3 56 -6 80 -6 l42 0 0 -614 0 -614 -68 -21
c-53 -16 -71 -26 -80 -46 -16 -34 -15 -65 1 -65 6 0 119 7 249 15 257 15 286
22 313 75 8 16 15 33 15 38 0 4 -35 16 -77 26 -43 10 -86 20 -95 22 -17 5 -18
36 -18 466 l0 461 304 -477 c319 -500 359 -557 408 -582 61 -32 216 -10 294
41 l24 15 2 682 3 683 53 10 c64 12 95 42 90 89 -4 38 3 38 -261 21z"/>
</g>
</svg>
