<?xml version="1.0" encoding="UTF-8"?>
<svg xmlns="http://www.w3.org/2000/svg" xmlns:xlink="http://www.w3.org/1999/xlink" width="256pt" height="256pt" viewBox="0 0 256 256" version="1.1">
<defs>
<linearGradient id="linear0" gradientUnits="userSpaceOnUse" x1="86" y1="24.41056" x2="86" y2="146.94175" gradientTransform="matrix(1.488372,0,0,1.488372,0,0)">
<stop offset="0" style="stop-color:rgb(0%,28.235294%,78.431373%);stop-opacity:1;"/>
<stop offset="1" style="stop-color:rgb(12.941176%,0%,85.882353%);stop-opacity:1;"/>
</linearGradient>
<linearGradient id="linear1" gradientUnits="userSpaceOnUse" x1="86" y1="43" x2="86" y2="69.875" gradientTransform="matrix(1.488372,0,0,1.488372,0,0)">
<stop offset="0" style="stop-color:rgb(22.352941%,50.196078%,100%);stop-opacity:1;"/>
<stop offset="1" style="stop-color:rgb(40.392157%,29.803922%,100%);stop-opacity:1;"/>
</linearGradient>
<linearGradient id="linear2" gradientUnits="userSpaceOnUse" x1="104.8125" y1="43" x2="104.8125" y2="69.875" gradientTransform="matrix(1.488372,0,0,1.488372,0,0)">
<stop offset="0" style="stop-color:rgb(22.352941%,50.196078%,100%);stop-opacity:1;"/>
<stop offset="1" style="stop-color:rgb(40.392157%,29.803922%,100%);stop-opacity:1;"/>
</linearGradient>
<linearGradient id="linear3" gradientUnits="userSpaceOnUse" x1="65.84375" y1="34.9375" x2="65.84375" y2="69.875" gradientTransform="matrix(1.488372,0,0,1.488372,0,0)">
<stop offset="0" style="stop-color:rgb(22.352941%,50.196078%,100%);stop-opacity:1;"/>
<stop offset="1" style="stop-color:rgb(40.392157%,29.803922%,100%);stop-opacity:1;"/>
</linearGradient>
<linearGradient id="linear4" gradientUnits="userSpaceOnUse" x1="86" y1="75.25806" x2="86" y2="136.62713" gradientTransform="matrix(1.488372,0,0,1.488372,0,0)">
<stop offset="0" style="stop-color:rgb(22.352941%,50.196078%,100%);stop-opacity:1;"/>
<stop offset="1" style="stop-color:rgb(40.392157%,29.803922%,100%);stop-opacity:1;"/>
</linearGradient>
<linearGradient id="linear5" gradientUnits="userSpaceOnUse" x1="94.0625" y1="75.25" x2="94.0625" y2="136.62175" gradientTransform="matrix(1.488372,0,0,1.488372,0,0)">
<stop offset="0" style="stop-color:rgb(22.352941%,50.196078%,100%);stop-opacity:1;"/>
<stop offset="1" style="stop-color:rgb(40.392157%,29.803922%,100%);stop-opacity:1;"/>
</linearGradient>
<linearGradient id="linear6" gradientUnits="userSpaceOnUse" x1="112.875" y1="75.25" x2="112.875" y2="136.62175" gradientTransform="matrix(1.488372,0,0,1.488372,0,0)">
<stop offset="0" style="stop-color:rgb(22.352941%,50.196078%,100%);stop-opacity:1;"/>
<stop offset="1" style="stop-color:rgb(40.392157%,29.803922%,100%);stop-opacity:1;"/>
</linearGradient>
</defs>
<g id="surface8552769">
<path style=" stroke:none;fill-rule:nonzero;fill:url(#linear0);" d="M 200 220 L 56 220 C 44.972656 220 36 211.027344 36 200 L 36 56 C 36 44.972656 44.972656 36 56 36 L 200 36 C 211.027344 36 220 44.972656 220 56 L 220 200 C 220 211.027344 211.027344 220 200 220 Z M 56 44 C 49.382812 44 44 49.382812 44 56 L 44 200 C 44 206.617188 49.382812 212 56 212 L 200 212 C 206.617188 212 212 206.617188 212 200 L 212 56 C 212 49.382812 206.617188 44 200 44 Z M 56 44 "/>
<path style=" stroke:none;fill-rule:nonzero;fill:url(#linear1);" d="M 132 104 L 124 104 C 119.578125 104 116 100.421875 116 96 L 116 72 C 116 67.578125 119.578125 64 124 64 L 132 64 C 136.421875 64 140 67.578125 140 72 L 140 96 C 140 100.421875 136.421875 104 132 104 Z M 126 96 L 130 96 C 131.105469 96 132 95.105469 132 94 L 132 74 C 132 72.894531 131.105469 72 130 72 L 126 72 C 124.894531 72 124 72.894531 124 74 L 124 94 C 124 95.105469 124.894531 96 126 96 Z M 126 96 "/>
<path style=" stroke:none;fill-rule:nonzero;fill:url(#linear2);" d="M 160 104 L 152 104 C 147.578125 104 144 100.421875 144 96 L 144 66 C 144 64.894531 144.894531 64 146 64 L 150 64 C 151.105469 64 152 64.894531 152 66 L 152 96 L 160 96 L 160 66 C 160 64.894531 160.894531 64 162 64 L 166 64 C 167.105469 64 168 64.894531 168 66 L 168 96 C 168 100.421875 164.421875 104 160 104 Z M 160 104 "/>
<path style=" stroke:none;fill-rule:nonzero;fill:url(#linear3);" d="M 104 54 L 104 76 L 92 76 L 92 54 C 92 52.894531 91.105469 52 90 52 L 86 52 C 84.894531 52 84 52.894531 84 54 L 84 76 C 84 80.421875 87.578125 84 92 84 L 104 84 L 104 96 L 86 96 C 84.894531 96 84 96.894531 84 98 L 84 102 C 84 103.105469 84.894531 104 86 104 L 104 104 C 108.421875 104 112 100.421875 112 96 L 112 54 C 112 52.894531 111.105469 52 110 52 L 106 52 C 104.894531 52 104 52.894531 104 54 Z M 104 54 "/>
<path style=" stroke:none;fill-rule:nonzero;fill:url(#linear4);" d="M 198.480469 135.800781 C 197.160156 123.359375 186.839844 113.679688 173.960938 112.761719 C 159.800781 111.761719 96.199219 111.761719 82.039062 112.761719 C 69.160156 113.679688 58.839844 123.359375 57.519531 135.761719 C 56.519531 145.078125 56 152.558594 56 158 C 56 163.441406 56.519531 170.921875 57.519531 180.199219 C 58.839844 192.640625 69.160156 202.320312 82.039062 203.238281 C 89.121094 203.761719 108.558594 204 128 204 C 147.441406 204 166.878906 203.761719 173.960938 203.238281 C 180.398438 202.800781 186.199219 200.121094 190.558594 196.039062 C 194.921875 191.960938 197.839844 186.398438 198.480469 180.199219 C 199.480469 170.921875 200 163.441406 200 158 C 200 152.558594 199.480469 145.078125 198.480469 135.800781 Z M 92 182 C 92 183.121094 91.121094 184 90 184 L 86 184 C 84.878906 184 84 183.121094 84 182 L 84 140 L 74 140 C 72.878906 140 72 139.121094 72 138 L 72 134 C 72 132.878906 72.878906 132 74 132 L 102 132 C 103.121094 132 104 132.878906 104 134 L 104 138 C 104 139.121094 103.121094 140 102 140 L 92 140 Z M 124 176 C 124 180.398438 120.398438 184 116 184 L 108 184 C 103.601562 184 100 180.398438 100 176 L 100 146 C 100 144.878906 100.878906 144 102 144 L 106 144 C 107.121094 144 108 144.878906 108 146 L 108 176 L 116 176 L 116 146 C 116 144.878906 116.878906 144 118 144 L 122 144 C 123.121094 144 124 144.878906 124 146 Z M 152 176 C 152 180.398438 148.398438 184 144 184 L 136 184 C 131.601562 184 128 180.398438 128 176 L 128 134 C 128 132.878906 128.878906 132 130 132 L 134 132 C 135.121094 132 136 132.878906 136 134 L 136 144 L 144 144 C 148.398438 144 152 147.601562 152 152 Z M 180 160 C 180 164.398438 176.398438 168 172 168 L 164 168 L 164 176 L 172 176 L 172 174 C 172 172.878906 172.878906 172 174 172 L 178 172 C 179.121094 172 180 172.878906 180 174 L 180 176 C 180 180.398438 176.398438 184 172 184 L 164 184 C 159.601562 184 156 180.398438 156 176 L 156 152 C 156 147.601562 159.601562 144 164 144 L 172 144 C 176.398438 144 180 147.601562 180 152 Z M 180 160 "/>
<path style=" stroke:none;fill-rule:nonzero;fill:url(#linear5);" d="M 144 154 L 144 174 C 144 175.121094 143.121094 176 142 176 L 138 176 C 136.878906 176 136 175.121094 136 174 L 136 154 C 136 152.878906 136.878906 152 138 152 L 142 152 C 143.121094 152 144 152.878906 144 154 Z M 144 154 "/>
<path style=" stroke:none;fill-rule:nonzero;fill:url(#linear6);" d="M 172 154 L 172 158 C 172 159.121094 171.121094 160 170 160 L 166 160 C 164.878906 160 164 159.121094 164 158 L 164 154 C 164 152.878906 164.878906 152 166 152 L 170 152 C 171.121094 152 172 152.878906 172 154 Z M 172 154 "/>
</g>
</svg>
